<?xml version="1.0" encoding="UTF-8"?>
<svg id="Layer_1" data-name="Layer 1" xmlns="http://www.w3.org/2000/svg" viewBox="0 0 490.31 507.4">
  <defs>
    <style>
      .cls-1 {
        fill: #a5a5a5;
      }

      .cls-2 {
        fill: #a9a9a9;
      }

      .cls-3 {
        fill: #fbfcfa;
      }

      .cls-4 {
        fill: #4a4a4a;
      }

      .cls-5 {
        fill: #7f817d;
      }

      .cls-6 {
        fill: #e0e0e0;
      }

      .cls-7 {
        fill: #fbfef9;
      }

      .cls-8 {
        fill: #010102;
      }

      .cls-9 {
        fill: #f3f3f3;
      }

      .cls-10 {
        fill: #fefefe;
      }
    </style>
  </defs>
  <path d="M56.01,377.61c-13.12,0-24.9,0-36.68,0-12.68,0-19.97-7.38-19.28-19.93,.36-6.63,1.27-13.24,2.02-19.85,.29-2.51,1.09-5.3,3.04-6.64,4.64-3.22,3.42-6.85,1.94-11.01-2.69-7.56-.11-15.18,.31-22.75,.45-8.13,1.7-16.21,2.46-24.33,1.96-20.98,20.11-37.72,41.21-37.73,38.48-.02,76.97-.04,115.45,.24,5.22,.04,7.43-1.28,8.66-6.57,6.2-26.66,9.35-53.73,11.85-80.92,2.32-25.26,1-50.6,2.05-75.86C190.74,31.29,224.91-.12,266.03,0c41.49,.12,75.04,32.87,77.22,74.28,5.13,31.54-2.17,89.8-2.17,89.8-2.48,22.83-5.97,45.5-12.47,67.6-.32,1.1-.52,2.23-.89,3.81,1.75,0,3.21,0,4.67,0,46.15-.04,92.29-.07,138.44-.12,12.22-.01,20.38,8.54,19.39,20.6-.52,6.3-1.29,12.57-2.03,18.85-1.18,10.04-8.75,17.07-18.92,16.6-4.64-.22-5.55,1.6-5.98,5.4-2.34,20.98-4.84,41.94-7.19,62.92-.44,3.89-2.78,7.19-3.49,10.67-.66,3.24,3.57,6.38,3.52,10.39-.11,8.83-1,17.63-2.85,26.21-1.92,8.92-9.63,14.37-19.22,14.07-3.44-.11-4.2,1.16-4.53,3.99-2.45,20.63-5.2,41.23-7.38,61.89-1.38,13.05-8.6,20.17-21.71,20.18-4,0-8,0-11.99,0-12.73,0-17.95-3.56-22.74-15.75-5.95,6.24-12.65,11.22-20.82,13.75-4.76,1.47-9.66,2.14-14.73,2.05-12.32-.22-24.65-.11-36.98-.03-5.17,.03-9.93-1-13.78-4.63-1.62-1.53-2.79-1.39-4.75-.37-7.18,3.75-14.89,5.49-23.03,5.01-8.3-.49-16.62,.73-24.93-.49-5.57-.82-10.63-2.72-15.04-6.08-1.94-1.48-2.94-1.26-4.5,.36-4.54,4.71-10.22,6.47-16.71,6.22-5.66-.21-11.33,.02-16.98-.18-4.12-.15-7.5-4.1-10.82-4.09-3.09,.02-6.42,4.12-10.32,4.04-9.4-.2-18.99,1.86-28.15-1.86-.59-.24-1.05-.72-1.78-.31-6.83,3.87-14.31,2.34-21.53,2.27-11.3-.11-22.64,1.07-33.91-.55-19.25-2.76-31.75-18.17-29.74-37.5,2.45-23.47,5.56-46.86,8.3-70.3,.92-7.87,4.22-14.56,10.5-21.09Z"/>
  <path class="cls-7" d="M262.16,244.18c2.82-13.35,3.41-26.73,.18-40.09-.81-3.35-1.83-6.71-4.84-9.61-3.1,13.16-8.54,24.64-19.22,34.49,2.02-10.14,3.05-19.19-1.57-28.55-3,10.12-3.76,20.52-11.34,28.03,.75-8.15,.89-16.04-2.82-24.33-1.57,11.18-4.71,20.87-14.07,29.09,2.31-7.02,4.32-12.75,4.97-18.79,.9-2.25,.07-4.53,.07-6.78-3.19-3.6-4.31-9.16-7.37-11.87-3.96-3.51-4.03-6.87-4.43-11.12-.92-9.87,2.45-19.48,1.48-29.32,1.19-23.77,2.09-47.56,1.11-71.35-.5-12,.42-23.51,5.69-34.49,11.83-24.65,38.58-39.59,64.47-35.87,28.59,4.1,49.92,25.13,54.74,53.09,4.74,27.5,3.83,55,1.26,82.56-2.56,27.53-7.28,54.66-15.25,81.17-.81,2.69-1.89,5.29-2.85,7.94-2.35,.11-1.43-1.72-1.54-2.78-.31-3.08,.41-6.21-.43-9.27-.57-3.23-1.13-6.47-1.89-10.75-4.09,7.12-8.08,13.04-14.9,17.82,1.52-5.56,3-10.17,2.92-15.1-.08-5.03-.6-9.89-3.18-15.47-6.69,17.38-15.79,32.3-29.82,43.74-1.88,.02-1.87-1.04-1.37-2.39Z"/>
  <path class="cls-10" d="M201.39,252.33c6.16,0,12.32-.06,18.48,.01,13.24,.15,21.17,9.25,19.57,22.33-1.43,11.71-3.35,27.86-10.19,35.57,3.79,8.12,4.52,14.74,3.31,22.27-.87,7.96-2.39,16.1-3.13,24.2-.32,3.46-1.68,4.67-4.98,4.57-4.49-.14-9-.17-13.49,0-3.91,.15-4.94-1.61-4.43-5.2,1.08-7.56,1.87-15.17,2.97-22.73,.48-3.27-.47-4.61-3.89-4.42-3.82,.22-7.68,.31-11.48-.01-3.61-.3-4.56,1.38-4.89,4.54-.84,7.93-2.04,15.81-2.85,23.74-.3,2.91-1.38,4.16-4.34,4.08-4.83-.13-9.66-.15-14.48,0-3.02,.1-3.64-1.14-3.31-3.93,1.82-15.34,3.41-30.71,5.25-46.05,2.19-18.29,4.63-36.56,6.73-54.86,.38-3.29,1.6-4.23,4.68-4.16,6.82,.15,13.65,.05,20.48,.05Z"/>
  <path class="cls-10" d="M245.58,490.27c-3,0-5.99,.01-8.99,0-15.36-.05-22.96-8.68-21.07-23.82,2.67-21.4,5.29-42.81,7.91-64.21,1.37-11.26,11.94-20.43,24.41-20.82,7.31-.23,14.65-.23,21.96,0,13.66,.42,20.93,9.83,19.05,23.31-2.8,20.05-5.33,40.15-7.49,60.27-1.76,16.33-10.93,25.18-27.29,25.27-2.83,.02-5.66,0-8.49,0Z"/>
  <path class="cls-10" d="M205.33,418.31c-1.83,16.01-3.63,32.03-5.5,48.04-.77,6.6-1.91,13.16-2.46,19.77-.28,3.3-1.62,4.29-4.69,4.19-4.66-.15-9.34-.21-13.99,.01-3.71,.18-4.58-1.28-4.08-4.77,1.15-8.06,1.81-16.18,3.04-24.22,.45-2.97-.57-3.35-3.03-3.27-4.16,.14-8.35,.3-12.49-.02-3.6-.28-4.54,1.35-4.87,4.51-.83,7.93-2.05,15.82-2.83,23.75-.3,2.99-1.51,4.07-4.39,4-5-.12-10-.08-14.99-.03-2.59,.03-3.34-.82-3-3.61,3.5-28.03,6.83-56.08,10.21-84.13,.69-5.77,1.5-11.54,1.97-17.33,.25-3.08,1.74-3.94,4.53-3.88,4.83,.11,9.66,.09,14.49,0,3.14-.06,4.09,1.39,3.7,4.36-1.89,14.5-3.68,29-5.54,43.5-.78,6.1-.82,6.1,5.09,6.1,1.5,0,3,0,4.5,0,10.38,0,10.2-.02,11.36-10.57,1.43-13.05,3.25-26.05,4.73-39.09,.35-3.06,1.48-4.42,4.67-4.31,4.83,.17,9.66,.03,14.49,.03,1.95,0,3.98,.22,3.65,2.84-1.14,9.05-2.44,18.08-3.68,27.11-1.84,2.14,.44,4.8-.87,7.01Z"/>
  <path class="cls-10" d="M92.53,490.27c-5.83,0-11.66,.06-17.49-.01-14.12-.18-21.16-7.82-19.67-21.85,2.25-21.14,4.63-42.28,7.31-63.37,1.81-14.27,8.33-20.71,22.6-22.82,8.07-1.2,16.3-1.22,24.35-.09,13.83,1.95,18.16,7.59,17.63,21.52-.03,.83-.04,1.67-.14,2.49q-1.09,8.68-9.92,8.68c-3,0-6.01-.14-8.99,.04-3.6,.21-4.88-1.16-3.99-4.72,1.14-4.57-.59-6.5-5.41-5.97-3.13,.34-6.33,.24-9.48,.02-3.29-.23-4.54,1.58-4.86,4.35-2.12,17.98-4.07,35.98-6.34,53.94-.56,4.39,.88,5.72,5.02,5.43,3.48-.25,6.99-.02,10.49-.14,1.89-.06,3.35-.52,3.87-2.96,1.27-5.94,1.43-6.08-4.97-6.01-3.44,.04-4.9-.76-4.26-4.54,.8-4.74,1.1-9.57,1.59-14.37,.27-2.61,1.56-3.67,4.29-3.62,8.49,.13,16.99,.12,25.49,0,2.92-.04,3.82,1.08,3.45,3.91-2,15.49-3.96,30.99-5.81,46.49-.33,2.77-1.62,3.66-4.25,3.62-6.83-.1-13.66-.03-20.49-.03Z"/>
  <path class="cls-10" d="M71.77,252.34c6.66,0,13.33,.14,19.99-.07,3.56-.11,4.82,1.07,4.21,4.66-.75,4.42-1.36,8.88-1.65,13.35-.23,3.55-1.66,5-5.28,4.95-9.99-.14-20,.12-29.99-.09-5.28-.11-8.11,2.31-9.09,7.22-1.1,5.54-1.89,11.14-1.97,16.8-.05,3.95,2.06,5.94,6.07,6.4,4.99,.57,9.97,.54,14.97,.57,11.9,.07,18.39,6.68,18.26,18.68-.07,6.17-.93,12.3-2.24,18.29-2.3,10.48-12.42,17.9-24.61,18.1-12.83,.22-25.66-.01-38.49,.1-3.55,.03-4.7-1.02-3.96-4.74,.87-4.38,1.14-8.9,1.42-13.38,.22-3.45,1.52-4.98,5.24-4.91,10.33,.2,20.66,.05,30.99,.09,2.21,.01,4.32-.08,6.1-1.6,1.72-1.46,2.13-3.36,1.61-5.42-.51-2.03-2.27-2.18-3.97-2.29-6.8-.42-13.64,.45-20.43-.76-9.82-1.75-16.33-9.56-15.31-19.51,1.23-12.06,2.81-24.1,4.68-36.08,1.89-12.08,11.25-20.01,23.44-20.32,6.66-.17,13.33-.03,19.99-.04Z"/>
  <path class="cls-10" d="M314.43,490.26c-6.49,0-12.99-.18-19.48,.08-3.92,.16-5.03-1.25-4.38-4.97,.77-4.41,1.46-8.86,1.67-13.32,.18-3.79,1.91-4.76,5.36-4.71,10.15,.14,20.31,.07,30.47,.05,1.49,0,3.07,.09,4.43-.38,2.58-.89,4.24-2.8,3.78-5.7-.42-2.66-2.54-3.11-4.87-3.21-6.63-.29-13.29,.7-19.9-.72-10.03-2.16-15.86-8.88-15.04-19.09,.98-12.24,2.42-24.48,4.46-36.59,2.08-12.32,11.65-20.06,24.2-20.27,13.15-.22,26.31,0,39.46-.12,3.26-.03,4.5,.89,3.94,4.35-.74,4.58-1.09,9.24-1.42,13.88-.25,3.51-1.79,4.84-5.42,4.77-9.99-.2-19.98-.11-29.97-.05-5.44,.03-8.45,2.39-9.32,7.67-.84,5.07-1.41,10.2-1.8,15.33-.29,3.91,1.26,6.64,5.59,7.46,4.98,.94,9.99,.79,14.93,.49,12.24-.74,20.53,8.24,18.9,21.53-.48,3.95-1.14,7.88-1.71,11.82-1.89,13.03-11.09,21.28-24.4,21.66-6.49,.19-12.99,.03-19.48,.04Z"/>
  <path class="cls-10" d="M276.82,361.24c-9.33,0-18.66-.1-27.98,.06-3.39,.06-4.88-.75-4.39-4.52,2.65-20.42,5.15-40.87,7.64-61.31,1.5-12.36,3.02-24.73,4.22-37.13,.43-4.44,1.81-6.21,6.68-6.13,18.32,.31,36.65,.22,54.97,.05,3.6-.03,4.77,1.13,4.31,4.57-.62,4.61-1.17,9.24-1.54,13.88-.29,3.6-2.06,4.68-5.55,4.62-11.16-.17-22.33,.16-33.48-.19-3.82-.12-4.86,1.33-5.22,4.59-.87,7.92-1.74,15.85-2.9,23.73-.41,2.81,1.16,2.64,2.85,2.65,4.66,.04,9.33,.15,13.99-.03,3.02-.12,4.35,.81,3.89,3.99-.77,5.25-1.47,10.52-2.02,15.81-.29,2.8-2.18,3.04-4.24,3.06-4.83,.06-9.66,.08-14.49,.02-5.94-.07-3.03,4.93-3.89,7.42-.99,2.88,2.29,1.89,3.73,1.91,11.33,.1,22.66,.17,33.98-.03,4.16-.07,5.26,1.33,4.44,5.33-.87,4.21-1.26,8.54-1.64,12.84-.3,3.42-1.69,4.97-5.37,4.89-9.32-.2-18.66-.07-27.98-.07Z"/>
  <path class="cls-10" d="M369.02,252.33c9.32,0,18.65,.14,27.97-.08,3.63-.09,4.75,1.17,4.24,4.62-.7,4.76-1.36,9.53-1.75,14.32-.27,3.28-1.89,4.11-4.91,4.08-11.32-.11-22.65,.19-33.96-.17-3.88-.12-4.87,1.52-5.23,4.65-.92,7.91-1.76,15.84-2.85,23.73-.38,2.75,1.18,2.62,2.91,2.63,4.83,.01,9.66,.1,14.49-.02,2.63-.06,3.66,.99,3.34,3.56,0,0-1.36,10.88-2.03,16.32-.37,3.04-2.73,2.95-4.86,2.99-4.49,.08-9,.14-13.48-.03-6.21-.23-3.56,4.97-4.3,7.57-.8,2.82,2.43,1.76,3.89,1.78,11.32,.11,22.65,.18,33.97,0,3.8-.06,5.1,1.06,4.35,4.93-.82,4.23-1.28,8.54-1.64,12.83-.3,3.55-1.54,5.32-5.53,5.28-18.65-.16-37.3-.15-55.95-.01-3.6,.03-4.64-1.13-4.21-4.67,4.04-33.13,8-66.26,11.89-99.41,.43-3.64,1.76-5.11,5.68-4.98,9.32,.3,18.65,.1,27.97,.09Z"/>
  <path class="cls-10" d="M135.59,252.33c9.49,0,18.98,.09,28.47-.05,3.35-.05,4.51,1.13,3.98,4.45-.73,4.58-1.38,9.2-1.74,13.82-.28,3.59-1.86,4.93-5.42,4.75-4.32-.22-8.68,.2-12.98-.14-3.16-.25-4.02,1.13-4.35,3.85-2.05,17.14-4.19,34.28-6.29,51.41-1.09,8.9-2.21,17.8-3.25,26.7-.35,3.01-1.74,4.33-4.92,4.17-4.48-.22-9-.26-13.48,0-3.77,.23-4.63-1.47-4.21-4.76,1.21-9.56,2.34-19.12,3.51-28.68,2.06-16.81,4.09-33.62,6.26-50.42,.34-2.64-1.26-2.18-2.65-2.19-4.66-.04-9.33-.14-13.98,.04-3.16,.12-4.69-.75-4.16-4.25,.8-5.25,1.43-10.53,2-15.81,.34-3.21,2.59-2.9,4.77-2.9,9.49,0,18.98,0,28.47,0Z"/>
  <path class="cls-10" d="M442.65,252.33c9.49,0,18.99,.08,28.48-.05,3.03-.04,4.3,.89,3.83,4.06-.73,4.93-1.33,9.88-1.83,14.83-.29,2.82-1.51,4.18-4.46,4.1-4.49-.12-9.01,.17-13.49-.11-3.11-.19-4.43,.84-4.78,3.94-1.31,11.72-2.79,23.41-4.21,35.12-1.74,14.34-3.44,28.69-5.24,43.03-.28,2.26-1.14,4.09-4.08,4.01-5.16-.14-10.33-.13-15.49,0-3.37,.08-3.33-2.04-3.08-4.31,1.05-9.25,2.11-18.5,3.25-27.73,2.12-17.14,4.24-34.29,6.53-51.41,.37-2.75-.99-2.59-2.77-2.58-4.83,.03-9.66-.09-14.49,.05-2.87,.08-3.95-1.06-3.58-3.86,.71-5.44,1.38-10.89,2.01-16.34,.33-2.83,2.32-2.76,4.39-2.76,9.66,.02,19.32,0,28.98,0Z"/>
  <path class="cls-10" d="M408.43,381.36c9.33,0,18.65,.11,27.97-.05,3.57-.06,4.76,1,4.07,4.69-.79,4.23-1.06,8.57-1.35,12.88-.25,3.72-1.39,5.87-5.76,5.48-4.3-.38-8.66,.09-12.98-.14-3.01-.16-3.89,.93-4.25,3.9-3.16,26.05-6.59,52.06-9.72,78.11-.4,3.33-1.59,4.2-4.66,4.08-4.82-.19-9.66-.11-14.48-.03-2.58,.04-3.51-.81-3.16-3.56,1.98-15.82,3.8-31.67,5.68-47.5,1.27-10.72,2.46-21.45,3.92-32.14,.34-2.51-.6-2.83-2.59-2.81-4.66,.04-9.33-.12-13.99,.03-3.13,.1-4.65-.56-4-4.22,.84-4.74,1.17-9.56,1.64-14.36,.32-3.19,1.77-4.53,5.18-4.45,9.49,.21,18.98,.07,28.47,.07Z"/>
  <path class="cls-3" d="M203.2,155.34c2.31,3.49,2.11,8.14,.75,10.88-2.96,5.97-.16,11.64-.92,17.36-.29,2.22,.19,4.53,.24,6.81,.04,1.66,.36,2.94,2.42,2.96,2.91,.03,3.47,2.15,3.56,4.41,.14,3.43,.37,6.2,5.13,6.41,2.65,.12,1.78,2.09-.05,3.18-.94,.42-.98,1.7-1.98,2.07-6.19,11.62-14.11,21.71-25.15,29.02,5.74-11.85,7.83-24.54,10.21-37.13,2.88-15.2,3.89-30.64,5.78-45.96Z"/>
  <path class="cls-6" d="M310.39,226.33c1.69,2.18,.59,4.71,.91,7.06,.23,1.69-.7,3.63,1.07,4.99-.38,1.31-.76,2.61-1.15,3.92-2.43-.34-1.16-1.97-1.1-3.17,.09-4.26,.18-8.53,.28-12.79Z"/>
  <path class="cls-9" d="M205.33,418.31c.24-2.57-3.12-5.14,.87-7.01-.87,7.01-.64,4.44-.87,7.01Z"/>
  <path class="cls-5" d="M212.36,209.4c.08-1.24,.4-2.25,1.98-2.07-.12,2.38,.39,4.85-.9,7.09-1-1.54,.91-3.7-1.08-5.02Z"/>
  <path class="cls-1" d="M310.12,239.12c.56,.99-.29,2.47,1.1,3.17-.36,1.28-.73,2.57-1.09,3.85-.93,.37-1.28,.07-1.05-.9,.3-2.05-.11-4.22,1.03-6.13Z"/>
  <path class="cls-2" d="M262.16,244.18c.34,.86,.07,2.07,1.37,2.39-.58,.87-1.49,2.29-2.31,1.33-.84-.99-.05-2.62,.95-3.71Z"/>
  <path class="cls-4" d="M309.08,245.25c.35,.3,.7,.6,1.05,.9-.38,.84-.75,1.68-1.23,2.76-.88-1.57-.94-2.68,.19-3.66Z"/>
  <path d="M303.95,98.64c-.66-7.79-4.48-12.58-9.63-16.64-2.2-1.74-4.24-3.78-5.99-5.98-3.14-3.94-2.85-8.83,.42-12.25,3.07-3.22,7.62-3.58,11.81-.94,1.25,.79,2.11,2.52,3.79,0,2.55-3.81,6.37-5.31,10.89-3.5,3.95,1.58,6.49,6.97,5.83,12.22-1.44,11.31-8.19,19.3-17.12,27.09Z"/>
  <path d="M254.39,97.6c-.34-8.04-4.9-13.01-10.39-17.36-2.1-1.66-4.16-3.34-5.61-5.61-2.43-3.8-2.1-9.05,.94-11.94,3.47-3.3,7.55-3.52,11.41-1,2.15,1.4,3.1,1.72,4.81-.64,2.21-3.04,5.61-4.04,9.36-2.9,4.01,1.21,5.73,4.37,6.38,8.13,.85,4.93-.41,9.57-2.54,14-3.29,6.85-8.19,12.31-14.38,17.33Z"/>
  <path class="cls-8" d="M281.49,125.47c-6.39-.09-11.26-.88-15.41-4.01-2.79-2.12-4.75-4.85-3.43-8.54,1.36-3.81,3.54-6.41,8.36-6.22,7.78,.32,15.58,0,23.37,0,5.19,0,7.88,4.07,6.08,8.97-1.45,3.94-4.71,5.98-8.22,7.44-3.81,1.58-7.88,2.49-10.75,2.37Z"/>
  <path d="M206.35,275.24c9.88,0,9.95,.01,9.06,9.46-.55,5.78-1.5,11.53-2,17.31-.27,3.07-2.08,3.99-4.6,4.07-4.16,.13-8.33-.1-12.48,.09-2.75,.13-3.47-.9-3.13-3.49,1.1-8.39,2.11-16.79,3.05-25.2,.2-1.75,1.08-2.25,2.61-2.25,2.5,0,4.99,0,7.49,0Z"/>
  <path d="M247.85,467.39q-9.68,0-8.52-9.62c1.98-16.16,4.01-32.31,5.91-48.47,.4-3.41,1.87-5.13,5.41-5.04,3.49,.1,7.01,.2,10.49-.03,3.57-.23,4.8,1.13,4.35,4.65-1.28,10.05-2.41,20.12-3.62,30.18-.81,6.76-1.82,13.5-2.47,20.28-.75,7.86-.76,8.01-8.56,8.04-1,0-2,0-3,0Z"/>
</svg>